HIERARCHY
ROOT Hips
{
  OFFSET 59.1352 85.6192 7.6966
  CHANNELS 6 Xposition Yposition Zposition Zrotation Xrotation Yrotation
  JOINT spine
  {
    OFFSET 0 6.3926 0.367606
    CHANNELS 3 Zrotation Xrotation Yrotation
    JOINT spine1
    {
      OFFSET 0 9.17611 0
      CHANNELS 3 Zrotation Xrotation Yrotation
      JOINT spine2
      {
        OFFSET 0 8.79238 0
        CHANNELS 3 Zrotation Xrotation Yrotation
        JOINT Neck
        {
          OFFSET 0 22.5737 1.07624
          CHANNELS 3 Zrotation Xrotation Yrotation
          JOINT Head
          {
            OFFSET 0 6.82011 0
            CHANNELS 3 Zrotation Xrotation Yrotation
            End Site
            {
              OFFSET 0 16.5085 -5.44427
            }
          }
        }
        JOINT RightShoulder
        {
          OFFSET -3.70221 9.49509 -0.515508
          CHANNELS 3 Zrotation Xrotation Yrotation
          JOINT RightArm
          {
            OFFSET 0 12.4537 0
            CHANNELS 3 Zrotation Xrotation Yrotation
            JOINT RightArmRoll
            {
              OFFSET 0 6.28685 0
              CHANNELS 3 Zrotation Xrotation Yrotation
              JOINT RightForeArm
              {
                OFFSET 0 18.3114 0
                CHANNELS 3 Zrotation Xrotation Yrotation
                JOINT RightForeArmRoll
                {
                  OFFSET 0 7.05482 0
                  CHANNELS 3 Zrotation Xrotation Yrotation
                  JOINT RightHand
                  {
                    OFFSET 0 14.1575 0
                    CHANNELS 3 Zrotation Xrotation Yrotation
                    End Site
                    {
                      OFFSET 0 0 0
                    }
                  }
                }
              }
            }
          }
        }
        JOINT LeftShoulder
        {
          OFFSET 3.70221 9.49509 -0.515508
          CHANNELS 3 Zrotation Xrotation Yrotation
          JOINT LeftArm
          {
            OFFSET 0 12.4537 0
            CHANNELS 3 Zrotation Xrotation Yrotation
            JOINT LeftArmRoll
            {
              OFFSET 0 6.28685 0
              CHANNELS 3 Zrotation Xrotation Yrotation
              JOINT LeftForeArm
              {
                OFFSET 0 18.3114 0
                CHANNELS 3 Zrotation Xrotation Yrotation
                JOINT LeftForeArmRoll
                {
                  OFFSET 0 7.05482 0
                  CHANNELS 3 Zrotation Xrotation Yrotation
                  JOINT LeftHand
                  {
                    OFFSET 0 14.1575 0
                    CHANNELS 3 Zrotation Xrotation Yrotation
                    End Site
                    {
                      OFFSET 0 0 0
                    }
                  }
                }
              }
            }
          }
        }
      }
    }
  }
  JOINT RightUpLeg
  {
    OFFSET -5.66616 -1.03903 -0.87161
    CHANNELS 3 Zrotation Xrotation Yrotation
    JOINT RightUpLegRoll
    {
      OFFSET 0 16.6005 0
      CHANNELS 3 Zrotation Xrotation Yrotation
      JOINT RightLeg
      {
        OFFSET 0 -20.5572 0
        CHANNELS 3 Zrotation Xrotation Yrotation
        JOINT RightLegRoll
        {
          OFFSET 0 20.6244 0
          CHANNELS 3 Zrotation Xrotation Yrotation
          JOINT RightFoot
          {
            OFFSET 0 17.1664 0
            CHANNELS 3 Zrotation Xrotation Yrotation
            JOINT RightToeBase
            {
              OFFSET 0 14.3502 0
              CHANNELS 3 Zrotation Xrotation Yrotation
              End Site
              {
                OFFSET 0.00608252 6.94971 -0.801061
              }
            }
          }
        }
      }
    }
  }
  JOINT LeftUpLeg
  {
    OFFSET 5.66616 -1.03903 -0.87161
    CHANNELS 3 Zrotation Xrotation Yrotation
    JOINT LeftUpLegRoll
    {
      OFFSET 0 16.6006 0
      CHANNELS 3 Zrotation Xrotation Yrotation
      JOINT LeftLeg
      {
        OFFSET 0 20.5571 0
        CHANNELS 3 Zrotation Xrotation Yrotation
        JOINT LeftLegRoll
        {
          OFFSET 0 20.8151 0
          CHANNELS 3 Zrotation Xrotation Yrotation
          JOINT LeftFoot
          {
            OFFSET 0 16.9757 0
            CHANNELS 3 Zrotation Xrotation Yrotation
            JOINT LeftToeBase
            {
              OFFSET 0 14.3502 0
              CHANNELS 3 Zrotation Xrotation Yrotation
              End Site
              {
                OFFSET -0.0272592 6.94971 -0.801061
              }
            }
          }
        }
      }
    }
  }
}
MOTION
Frames: 5
Frame Time: 0.00208333
53.1101 121.475 9.7206 2.0911 8.03552 0.589992 -0.235782 -2.18294 0.0971555 -0.46825 -0.363554 0.215788 -0.470939 1.28148 0.223664 -2.41903 14.5013 0.0449753 3.40437 -4.42147 -0.332582 44.7521 -12.8964 -8.54833 93.6102 14.2766 22.9062 1.85441e-006 -2.21612e-006 -4.34136e-006 3.88844 56.7147 -3.55092 -3.6182e-008 2.28861e-006 -3 8.02894 -4.95143 0.697689 -49.8858 -13.7041 9.01745 -97.6209 15.791 -1.60591 5.08142e-006 -5.33885e-006 3.5044e-006 -10.1819 57.9137 8.08473 6.13746e-006 -1.41087e-006 3.00001 -8.02892 -4.95146 -0.697678 173.906 10.291 1.34552 180 7.01594e-015 179.153 176.407 7.62381 179.744 -3.17858e-007 3.61995e-006 0.0562424 -16.9266 66.0294 18.0543 8.13649 25.2326 -3.48773 -179.514 9.87768 4.19527 4.54188e-006 -4.6773e-006 -0.881547 -0.455741 -11.2881 0.466944 -1.37365e-006 -4.47614e-006 -0.0868485 18.0503 67.3662 -19.0441 -8.13649 25.2327 3.48774 
53.1134 121.555 9.72683 2.13337 8.14082 0.639781 -0.241447 -2.227 0.0982234 -0.479425 -0.451684 0.218287 -0.482133 1.19335 0.226346 -2.39624 15.0601 0.0131005 3.36026 -4.78664 -0.361517 44.9296 -13.0058 -8.63309 93.3991 14.0318 22.9738 1.85441e-006 -2.21612e-006 -4.34136e-006 3.89181 55.9784 -3.52004 -3.6182e-008 2.28861e-006 -3 8.02894 -4.95143 0.697689 -50.2404 -13.5571 8.88585 -97.3872 15.3404 -1.69241 5.08142e-006 -5.33885e-006 3.5044e-006 -10.3435 57.2023 8.08436 6.13746e-006 -1.41087e-006 3.00001 -8.02892 -4.95146 -0.697678 173.852 10.3577 1.36473 180 7.01595e-015 179.155 176.401 7.57344 179.746 -3.17858e-007 3.61995e-006 0.0551544 -16.932 66.0415 18.0634 8.13649 25.2326 -3.48773 -179.559 9.93308 4.25046 4.54188e-006 -4.6773e-006 -0.876968 -0.450332 -11.1497 0.462654 -1.37365e-006 -4.47614e-006 -0.0836029 18.0377 67.3528 -19.0341 -8.13649 25.2327 3.48774 
53.1473 121.656 9.71225 2.17032 8.23916 0.688392 -0.246725 -2.26857 0.0989711 -0.489838 -0.534844 0.220117 -0.492558 1.11019 0.228347 -2.36764 15.5995 -0.0181094 3.31432 -5.14171 -0.387948 45.0977 -13.1119 -8.71547 93.2026 13.7911 23.0429 1.85441e-006 -2.21612e-006 -4.34136e-006 3.8929 55.2434 -3.4875 -3.6182e-008 2.28861e-006 -3 8.02894 -4.95143 0.697689 -50.5704 -13.4181 8.76226 -97.1758 14.8996 -1.78399 5.08142e-006 -5.33885e-006 3.5044e-006 -10.4821 56.5117 8.07112 6.13746e-006 -1.41087e-006 3.00001 -8.02892 -4.95146 -0.697678 173.806 10.4192 1.38 180 7.01595e-015 179.158 176.397 7.52593 179.747 -3.17858e-007 3.61995e-006 0.054145 -16.9377 66.0539 18.0726 8.13649 25.2326 -3.48773 -179.597 9.98532 4.29944 4.54188e-006 -4.6773e-006 -0.872712 -0.445419 -11.0194 0.458638 -1.37365e-006 -4.47614e-006 -0.0805334 18.0259 67.3403 -19.0248 -8.13649 25.2327 3.48774 
53.1389 121.732 9.70778 2.20064 8.32922 0.735431 -0.251535 -2.30713 0.0993406 -0.499329 -0.611985 0.221158 -0.502051 1.03304 0.229543 -2.3313 16.1142 -0.0484942 3.26586 -5.48297 -0.411229 45.255 -13.2145 -8.79521 93.024 13.5551 23.1137 1.85441e-006 -2.21612e-006 -4.34136e-006 3.89111 54.5103 -3.45283 -3.6182e-008 2.28861e-006 -3 8.02894 -4.95143 0.697689 -50.8708 -13.2897 8.64889 -96.9907 14.4708 -1.8809 5.08142e-006 -5.33885e-006 3.5044e-006 -10.5952 55.8463 8.04444 6.13746e-006 -1.41087e-006 3.00001 -8.02892 -4.95146 -0.697678 173.769 10.4737 1.39015 180 7.01595e-015 179.16 176.394 7.48066 179.749 -3.17858e-007 3.61995e-006 0.0532129 -16.9437 66.0663 18.0818 8.13649 25.2326 -3.48773 -179.626 10.0333 4.34093 4.54188e-006 -4.6773e-006 -0.868842 -0.440969 -10.8983 0.454968 -1.37365e-006 -4.47614e-006 -0.0776725 18.0153 67.3292 -19.0164 -8.13649 25.2327 3.48774 
53.1405 121.824 9.7414 2.22304 8.40969 0.780508 -0.255792 -2.34217 0.0992738 -0.50774 -0.682057 0.221288 -0.510454 0.962971 0.229809 -2.28529 16.5985 -0.0778877 3.21419 -5.80669 -0.430712 45.4001 -13.3129 -8.87202 92.8666 13.3248 23.1865 1.85441e-006 -2.21612e-006 -4.34136e-006 3.88585 53.7798 -3.41564 -3.6182e-008 2.28861e-006 -3 8.02894 -4.95143 0.697689 -51.1364 -13.1745 8.54796 -96.8362 14.0561 -1.98344 5.08142e-006 -5.33885e-006 3.5044e-006 -10.6804 55.21 8.00369 6.13746e-006 -1.41087e-006 3.00001 -8.02892 -4.95146 -0.697678 173.744 10.5194 1.394 180 7.01596e-015 179.161 176.392 7.43694 179.75 -3.17858e-007 3.61995e-006 0.0523565 -16.9498 66.0783 18.0906 8.13649 25.2326 -3.48773 -179.645 10.076 4.37365 4.54188e-006 -4.6773e-006 -0.865425 -0.436952 -10.7873 0.451718 -1.37365e-006 -4.47614e-006 -0.0750528 18.0062 67.3199 -19.0094 -8.13649 25.2327 3.48774 
